***************************************************************

[IMG]http://www.hotimg.org/images/67363952943939111394.png[/IMG]

***************************************************************

[IMG]http://www.hotimg.org/images/37601379804577490337.jpg[/IMG]

***************************************************************

FILM TITLE: Fortress of War (2010) Brestskaya krepost (original title)

***************************************************************

Genre:  Action | Drama | War   

Release:  4 November 2010 (Belarus)

Director: Aleksandr Kott

Writer: Igor Ugolnikov (story), Vladimir Yeryomin

Stars: Evgeniy Tsyganov, Pavel Derevyanko and Andrey Merzlikin

Country: Belarus | Russia

Language: Russian | Ukrainian | Belarusian

Plot:
A war drama set during the Nazi invasion of the Soviet Union in 
June 1941,in which Russian troops held on to a border stronghold for nine days.

IMDB Rating: 7.5/10 from 2,422 users 
 
http://www.imdb.com/title/tt1343703/

****************************************************************

[URL=http://www.hotimg.org/viewer.php?file=02822749206009034969.png][IMG]http://www.hotimg.org/images/02822749206009034969_thumb.png[/IMG][/URL]
[URL=http://www.hotimg.org/viewer.php?file=46771267735009171334.png][IMG]http://www.hotimg.org/images/46771267735009171334_thumb.png[/IMG][/URL]
[URL=http://www.hotimg.org/viewer.php?file=88964371216708055441.png][IMG]http://www.hotimg.org/images/88964371216708055441_thumb.png[/IMG][/URL]
[URL=http://www.hotimg.org/viewer.php?file=81830450212726644530.png][IMG]http://www.hotimg.org/images/81830450212726644530_thumb.png[/IMG][/URL]

****************************************************************

General
Complete name                    : Fortress Of War 2010 720p BDRip XviD ac3 eng-hardsub (avi) [GREYSHADOW].avi
Format                           : AVI
Format/Info                      : Audio Video Interleave
Format profile                   : OpenDML
File size                        : 3.81 GiB
Duration                         : 2h 18mn
Overall bit rate                 : 3946 Kbps
Writing library                  : VirtualDub build 32842/release

Video
ID                               : 0
Format                           : MPEG-4 Visual
Format profile                   : Simple@L5
Format settings, BVOP            : No
Format settings, QPel            : No
Format settings, GMC             : No warppoints
Format settings, Matrix          : Default (H.263)
Codec ID                         : XVID
Codec ID/Hint                    : XviD
Duration                         : 2h 18mn
Bit rate                         : 3297 Kbps
Width                            : 1280 pixels
Height                           : 544 pixels
Display aspect ratio             : 2.35:1
Frame rate                       : 24.000 fps
Color space                      : YUV
Chroma subsampling               : 4:2:0
Bit depth                        : 8 bits
Scan type                        : Progressive
Compression mode                 : Lossy
Bits/(Pixel*Frame)               : 0.197
Stream size                      : 3.18 GiB (84%)
Writing library                  : XviD 64

Audio
ID                               : 1
Format                           : AC-3
Format/Info                      : Audio Coding 3
Mode extension                   : CM (complete main)
Codec ID                         : 2000
Duration                         : 2h 18mn
Bit rate mode                    : Constant
Bit rate                         : 640 Kbps
Channel(s)                       : 6 channels
Channel positions                : Front: L C R, Side: L R, LFE
Sampling rate                    : 48.0 KHz
Bit depth                        : 16 bits
Compression mode                 : Lossy
Stream size                      : 633 MiB (16%)
Alignment                        : Aligned on interleaves
Interleave, duration             : 42 ms (1.00 video frame)
Interleave, preload duration     : 512 ms

****************************************************************

Video Source: The Brest Fortress 2010 Blu-ray 1080p AVC DTS 5.1-TTG

Thanks: PaLmeTTo (wiki-allsubs for subtitle)

****************************************************************

I provide a small sample, so please download this to check your 
compatibility first if you are unsure.

****************************************************************

Hash: C0EEB63EC78B6827388A50EB079D42F40C390B90

Trackers:
.udp://tracker.1337x.org:80/announce

****************************************************************